<?xml version="1.0" standalone="no"?>
<!DOCTYPE svg PUBLIC "-//W3C//DTD SVG 20010904//EN"
 "http://www.w3.org/TR/2001/REC-SVG-20010904/DTD/svg10.dtd">
<svg version="1.0" xmlns="http://www.w3.org/2000/svg"
 width="134.000000pt" height="145.000000pt" viewBox="0 0 134.000000 145.000000"
 preserveAspectRatio="xMidYMid meet">

<g transform="translate(0.000000,145.000000) scale(0.100000,-0.100000)"
fill="#4295D1" stroke="none">
<path d="M522 1435 c-218 -49 -411 -227 -481 -445 -28 -86 -49 -290 -33 -325
18 -38 55 -52 87 -31 23 15 25 22 25 94 1 267 148 488 373 561 92 29 136 34
222 22 149 -21 278 -94 365 -206 63 -82 105 -97 136 -50 23 35 12 68 -47 140
-88 108 -193 180 -321 220 -100 32 -239 40 -326 20z"/>
<path d="M554 1203 c-38 -7 -57 -38 -50 -77 4 -20 12 -38 17 -42 6 -4 61 -7
123 -8 101 -1 116 -4 166 -29 107 -56 183 -155 211 -273 7 -33 9 -110 4 -240
-6 -170 -5 -193 10 -208 18 -17 52 -21 74 -7 19 12 29 76 36 246 8 174 -1 245
-47 350 -39 89 -67 126 -146 191 -84 69 -187 105 -299 103 -43 -1 -88 -4 -99
-6z"/>
<path d="M293 1028 c-26 -28 -60 -96 -79 -157 -9 -26 -19 -119 -24 -216 -5
-93 -12 -196 -16 -227 -5 -45 -3 -63 10 -83 25 -38 71 -33 94 11 16 30 32 173
32 279 0 123 15 196 57 281 33 66 35 73 22 100 -19 39 -66 45 -96 12z"/>
<path d="M594 971 c-46 -12 -101 -48 -129 -85 -47 -62 -57 -103 -66 -271 -5
-88 -15 -200 -23 -250 -14 -84 -13 -92 3 -115 23 -33 62 -37 86 -10 26 28 43
142 51 330 5 116 11 166 25 197 47 112 203 110 257 -3 17 -34 22 -63 22 -122
0 -80 -14 -273 -26 -347 -5 -36 -2 -47 15 -64 24 -24 49 -27 76 -7 27 19 44
130 51 336 6 163 5 179 -15 231 -26 69 -80 133 -134 161 -45 23 -142 32 -193
19z"/>
<path d="M1219 904 c-15 -18 -15 -45 -4 -177 8 -96 19 -117 65 -117 23 0 33 7
45 30 13 25 14 46 5 135 -5 58 -14 114 -20 125 -13 25 -72 27 -91 4z"/>
<path d="M630 730 c-17 -17 -20 -33 -20 -124 0 -122 -10 -209 -47 -398 -29
-148 -27 -184 13 -199 35 -12 67 11 81 61 38 132 73 391 73 550 0 96 -14 130
-56 130 -13 0 -33 -9 -44 -20z"/>
</g>
</svg>
