<?xml version="1.0" standalone="no"?>
<!DOCTYPE svg PUBLIC "-//W3C//DTD SVG 20010904//EN"
 "http://www.w3.org/TR/2001/REC-SVG-20010904/DTD/svg10.dtd">
<svg version="1.0" xmlns="http://www.w3.org/2000/svg"
 width="308.000000pt" height="178.000000pt" viewBox="0 0 308.000000 178.000000"
 preserveAspectRatio="xMidYMid meet">

<g transform="translate(0.000000,178.000000) scale(0.100000,-0.100000)"
fill="#000000" stroke="none">
<path d="M1500 1610 c0 -153 -1 -160 -20 -160 -11 0 -20 -2 -20 -5 0 -3 9 -23
20 -45 11 -22 20 -42 20 -45 0 -3 -292 -5 -650 -5 l-650 0 0 50 c0 47 -2 50
-25 50 l-25 0 0 -125 0 -125 25 0 c24 0 25 3 25 55 l0 55 1128 0 c1115 0 1127
0 1096 -19 -38 -23 -48 -37 -34 -46 10 -6 160 74 160 85 0 11 -151 90 -161 85
-13 -9 -2 -23 35 -46 l31 -19 -244 0 c-191 0 -242 3 -238 13 3 6 12 29 21 50
16 36 16 37 -4 37 -19 0 -20 6 -20 160 0 136 -2 160 -15 160 -13 0 -15 -24
-15 -160 0 -154 -1 -160 -20 -160 -20 0 -20 -2 5 -50 l25 -50 -210 0 c-115 0
-210 2 -210 5 0 3 9 23 20 45 11 22 20 42 20 45 0 3 -9 5 -20 5 -19 0 -20 7
-20 160 0 136 -2 160 -15 160 -13 0 -15 -24 -15 -160z"/>
<path d="M2489 1179 l-24 -20 23 6 c21 6 22 4 22 -59 0 -59 -2 -66 -20 -66
-11 0 -20 -4 -20 -10 0 -5 23 -10 50 -10 28 0 50 5 50 10 0 6 -9 10 -20 10
-18 0 -20 7 -20 80 0 44 -4 80 -9 80 -5 0 -19 -9 -32 -21z"/>
<path d="M2627 1185 c-35 -34 -33 -136 3 -155 51 -27 90 7 90 80 0 37 -5 55
-20 70 -24 24 -53 26 -73 5z m67 -21 c10 -27 7 -99 -6 -112 -32 -32 -68 -1
-68 58 0 17 5 40 10 51 13 23 55 25 64 3z"/>
<path d="M2775 1186 c-12 -9 -20 -30 -23 -68 -4 -47 -1 -59 17 -77 47 -47 101
-11 101 69 0 75 -46 112 -95 76z m64 -20 c18 -22 10 -107 -11 -120 -30 -19
-53 4 -56 58 -3 51 9 76 38 76 10 0 23 -6 29 -14z"/>
<path d="M224 1162 c-38 -25 -46 -120 -14 -152 46 -46 100 -9 100 70 0 69 -44
111 -86 82z m55 -26 c18 -22 10 -107 -11 -120 -30 -19 -53 4 -56 58 -3 51 9
76 38 76 10 0 23 -6 29 -14z"/>
<path d="M637 693 c-15 -14 -6 -39 24 -64 38 -31 32 -54 -13 -45 -18 3 -27 2
-23 -4 9 -15 52 -12 69 5 20 20 11 42 -26 61 -34 18 -32 39 5 39 14 -1 23 3
21 7 -6 10 -48 11 -57 1z"/>
<path d="M1321 688 c0 -10 -7 -18 -13 -18 -10 0 -10 -2 -1 -8 6 -4 13 -25 15
-47 2 -27 8 -40 18 -41 9 0 10 1 3 3 -21 7 -16 81 5 86 15 4 15 5 0 6 -9 0
-19 9 -21 19 -4 16 -5 16 -6 0z"/>
<path d="M1440 640 c-13 -34 -20 -63 -17 -67 4 -3 9 2 13 11 8 21 62 22 70 1
4 -8 10 -15 14 -15 5 0 -1 29 -13 65 -12 36 -26 65 -33 65 -6 0 -22 -27 -34
-60z m49 -12 c1 -12 -6 -18 -19 -18 -23 0 -24 8 -9 47 10 26 12 27 19 8 5 -11
9 -28 9 -37z"/>
<path d="M152 678 c-16 -16 -16 -80 0 -96 7 -7 42 -12 88 -12 87 0 100 8 100
60 0 52 -13 60 -100 60 -46 0 -81 -5 -88 -12z"/>
<path d="M728 646 c-16 -36 3 -76 36 -76 14 0 27 4 30 8 2 4 -7 8 -22 7 -17 0
-28 6 -30 18 -3 14 4 17 32 17 32 0 35 2 27 23 -12 34 -58 35 -73 3z m60 -3
c2 -8 -6 -13 -22 -13 -25 0 -33 10 -19 24 10 10 36 3 41 -11z"/>
<path d="M836 658 c-3 -7 -7 -36 -10 -65 -4 -40 -2 -53 10 -57 26 -10 51 -7
64 9 17 20 -3 45 -39 46 -21 1 -22 2 -6 6 31 8 47 25 42 44 -3 10 0 20 7 23 6
2 -6 5 -27 5 -22 1 -39 -4 -41 -11z m44 -23 c0 -25 -23 -35 -35 -15 -10 16 2
40 20 40 9 0 15 -9 15 -25z m8 -72 c-2 -10 -13 -19 -26 -21 -17 -3 -22 2 -22
17 0 16 6 21 26 21 19 0 25 -5 22 -17z"/>
<path d="M930 619 c0 -60 18 -65 22 -7 2 31 8 44 21 46 14 3 17 -4 17 -42 0
-58 18 -61 22 -4 2 31 8 44 21 46 14 3 17 -4 17 -42 0 -25 5 -46 10 -46 15 0
12 77 -2 87 -7 4 -39 8 -70 9 l-58 1 0 -48z"/>
<path d="M1098 646 c-16 -36 3 -76 36 -76 14 0 27 4 30 8 2 4 -7 8 -22 7 -17
0 -28 6 -30 18 -3 14 4 17 32 17 32 0 35 2 27 23 -12 34 -58 35 -73 3z m60 -3
c2 -8 -6 -13 -22 -13 -25 0 -33 10 -19 24 10 10 36 3 41 -11z"/>
<path d="M1200 618 c0 -59 18 -64 22 -6 2 31 8 44 21 46 14 3 17 -4 17 -42 0
-25 5 -46 10 -46 12 0 13 69 2 87 -4 6 -22 11 -40 11 -32 -1 -32 -2 -32 -50z"/>
<path d="M1544 648 c10 -45 25 -78 34 -78 11 0 46 89 38 97 -3 3 -10 -7 -16
-23 -22 -59 -22 -60 -32 -24 -12 43 -34 68 -24 28z"/>
<path d="M1652 658 c-7 -7 -12 -27 -12 -45 0 -27 5 -34 26 -39 14 -4 30 -2 36
4 8 8 4 9 -12 5 -13 -4 -25 0 -31 8 -15 24 -10 29 26 29 22 0 35 5 35 13 0 18
-21 37 -40 37 -9 0 -21 -5 -28 -12z m46 -15 c2 -8 -6 -13 -22 -13 -25 0 -33
10 -19 24 10 10 36 3 41 -11z"/>
<path d="M1751 615 c1 -27 3 -39 6 -25 9 56 14 69 31 73 9 3 5 4 -10 4 -27 -1
-28 -3 -27 -52z"/>
<path d="M1826 661 c-3 -4 6 -6 19 -3 20 3 25 0 25 -17 0 -14 -6 -21 -19 -21
-23 0 -42 -22 -33 -37 4 -7 22 -11 40 -11 30 1 32 3 32 38 0 20 -5 41 -12 48
-14 14 -44 16 -52 3z m42 -63 c-7 -19 -38 -22 -38 -4 0 10 9 16 21 16 12 0 19
-5 17 -12z"/>
<path d="M1923 658 c-6 -7 -10 -37 -11 -66 0 -58 10 -69 54 -58 38 10 30 50
-11 55 -29 4 -29 4 -5 10 17 5 26 16 31 39 6 30 5 32 -21 32 -15 0 -32 -6 -37
-12z m42 -24 c0 -10 -8 -20 -17 -22 -18 -3 -26 27 -11 42 12 11 28 0 28 -20z
m10 -74 c0 -18 -33 -26 -47 -12 -6 6 -7 15 -3 22 10 16 50 8 50 -10z"/>
<path d="M2022 658 c-15 -15 -16 -60 0 -76 13 -13 54 -16 62 -4 2 4 -7 8 -22
7 -17 0 -28 6 -30 18 -3 13 3 17 28 17 27 0 31 3 28 23 -3 25 -45 36 -66 15z
m56 -15 c2 -8 -6 -13 -22 -13 -25 0 -33 10 -19 24 10 10 36 3 41 -11z"/>
<path d="M144 317 c-3 -8 -4 -34 -2 -58 l3 -44 95 0 95 0 0 55 0 55 -93 3
c-73 2 -94 0 -98 -11z"/>
<path d="M750 260 c0 -40 4 -70 10 -70 6 0 10 30 10 70 0 40 -4 70 -10 70 -6
0 -10 -30 -10 -70z"/>
<path d="M911 265 c-1 -70 -1 -70 27 -72 35 -2 52 13 52 47 0 31 -20 53 -46
48 -12 -2 -20 6 -25 22 -5 17 -7 1 -8 -45z m59 6 c0 -5 2 -15 5 -23 3 -7 -1
-22 -9 -33 -12 -16 -16 -17 -30 -6 -19 16 -21 42 -4 59 14 14 38 16 38 3z"/>
<path d="M1123 260 c0 -41 2 -58 4 -37 2 20 2 54 0 75 -2 20 -4 3 -4 -38z"/>
<path d="M642 304 c-49 -34 -16 -119 45 -112 24 2 28 8 31 36 3 29 1 32 -25
31 -24 -2 -25 -2 -5 -6 17 -3 22 -10 20 -26 -4 -33 -48 -30 -67 4 -13 24 -13
29 3 54 14 21 24 26 46 23 16 -2 27 -1 24 4 -8 13 -48 9 -72 -8z"/>
<path d="M1226 268 c-10 -29 -21 -59 -23 -65 -3 -7 0 -13 6 -13 6 0 11 7 11
15 0 10 11 15 35 15 24 0 35 -5 35 -15 0 -8 5 -15 11 -15 6 0 9 6 7 13 -3 6
-13 36 -22 65 -10 28 -23 52 -29 52 -7 0 -21 -24 -31 -52z m44 -7 c8 -28 7
-31 -15 -31 -22 0 -23 2 -14 32 5 18 9 35 9 37 0 12 12 -10 20 -38z"/>
<path d="M813 282 c-19 -12 -23 -60 -7 -77 32 -31 74 -11 74 35 0 42 -34 63
-67 42z m52 -22 c9 -29 -4 -60 -25 -60 -21 0 -36 39 -26 65 8 22 44 18 51 -5z"/>
<path d="M1026 282 c-3 -5 5 -8 17 -8 36 1 33 -30 -3 -38 -47 -9 -37 -40 13
-43 36 -1 37 0 37 36 0 20 -5 42 -12 49 -14 14 -44 16 -52 4z m42 -64 c-7 -19
-38 -22 -38 -4 0 10 9 16 21 16 12 0 19 -5 17 -12z"/>
<path d="M1320 287 c0 -20 35 -97 42 -95 13 5 49 98 37 98 -4 0 -14 -18 -20
-40 -14 -46 -24 -44 -33 5 -4 19 -11 35 -16 35 -6 0 -10 -1 -10 -3z"/>
<path d="M1432 278 c-7 -7 -12 -24 -12 -38 0 -14 5 -31 12 -38 14 -14 54 -16
62 -3 3 4 -5 6 -18 4 -17 -4 -27 1 -35 16 -11 19 -9 21 24 21 22 0 35 5 35 13
0 18 -21 37 -40 37 -9 0 -21 -5 -28 -12z m52 -13 c4 -11 -2 -15 -26 -15 -26 0
-29 2 -18 15 7 8 18 15 25 15 7 0 15 -7 19 -15z"/>
<path d="M1532 235 c1 -43 2 -45 5 -13 3 24 12 43 26 53 22 15 22 15 -6 13
-26 -2 -27 -5 -25 -53z"/>
<path d="M1606 282 c-3 -5 6 -7 19 -4 20 3 25 0 25 -16 0 -14 -8 -22 -22 -24
-15 -2 -23 -10 -23 -23 0 -16 7 -20 33 -21 l33 -1 -3 46 c-3 41 -6 46 -30 49
-14 2 -29 -1 -32 -6z m48 -67 c-6 -16 -44 -21 -44 -7 0 14 12 22 31 22 12 0
16 -5 13 -15z"/>
<path d="M1705 278 c-3 -7 -6 -38 -7 -68 l-3 -55 35 0 c31 0 35 3 35 25 0 19
-6 26 -30 31 -23 5 -25 7 -8 8 23 1 48 33 35 45 -3 4 0 11 8 16 11 7 4 10 -23
10 -21 0 -40 -5 -42 -12z m42 -14 c8 -21 -13 -42 -28 -27 -13 13 -5 43 11 43
6 0 13 -7 17 -16z m8 -84 c0 -8 -10 -16 -22 -18 -18 -3 -23 2 -23 18 0 16 5
21 23 18 12 -2 22 -10 22 -18z"/>
<path d="M1811 281 c-8 -5 -14 -24 -14 -41 0 -17 6 -36 14 -41 17 -11 46 -12
53 -1 2 4 -7 8 -22 7 -17 0 -28 6 -30 18 -3 14 4 17 32 17 39 0 41 2 26 31
-11 20 -36 24 -59 10z m47 -18 c2 -8 -6 -13 -22 -13 -25 0 -33 10 -19 24 10
10 36 3 41 -11z"/>
</g>
</svg>
